<?xml version="1.0" encoding="utf-8"?>
<!-- Generator: Adobe Illustrator 15.0.0, SVG Export Plug-In . SVG Version: 6.00 Build 0)  -->
<!DOCTYPE svg PUBLIC "-//W3C//DTD SVG 1.1//EN" "http://www.w3.org/Graphics/SVG/1.1/DTD/svg11.dtd">
<svg version="1.1" id="图层_1" xmlns="http://www.w3.org/2000/svg" xmlns:xlink="http://www.w3.org/1999/xlink" x="0px" y="0px"
	 width="376.002px" height="84.02px" viewBox="0 0 376.002 84.02" enable-background="new 0 0 376.002 84.02" xml:space="preserve">
<g id="图层_2" display="none">
	<rect x="-210.004" y="-101.49" display="inline" fill="#FF0000" width="792" height="383"/>
</g>
<g id="图层_1_1_">
	<path fill="#FFFFFF" d="M71.384,42.859h10.36V27.432h4.95l-7.542-8.99V5.391H76.56v9.968L67.5,4.56L48.307,27.432h4.95v15.427
		h10.36v-9.254h7.767V42.859z M84.336,45.5H68.791v-9.254h-2.583V45.5H50.664V30.073h-5.175v-3.355L67.5,0.5l6.476,7.709V2.75h7.767
		v14.713l7.767,9.254v3.355h-5.175L84.336,45.5L84.336,45.5z"/>
	<path fill="#FFFFFF" d="M137.5,41.66h40c-0.619-1.934-2.699-4.07-6.02-6.16c-3.48-2.184-7.394-3.684-8.881-3.92
		c-1.82-0.29-2.039-3.07-2.052-4.24l-0.01-0.5l0.353-0.34c0.026-0.03,2.84-2.91,3.438-6.644l0.158-0.979h0.979
		c0.132-0.021,0.529-0.439,0.761-1.33c0.278-1.08,0.121-2.17-0.379-2.6l-0.439-0.384l0.03-0.564c0.013-0.149,0.029-0.38,0.062-0.684
		c0.201-1.816,0.647-6.09-1.67-8.72c-1.343-1.5-3.472-2.261-6.33-2.261c-2.86,0-4.989,0.761-6.319,2.261
		c-2.33,2.619-1.88,6.894-1.68,8.72c0.03,0.304,0.05,0.53,0.06,0.684l0.02,0.58l-0.43,0.37c-0.5,0.43-0.66,1.52-0.38,2.6
		c0.23,0.891,0.63,1.311,0.76,1.341h0.98l0.15,0.97c0.61,3.729,3.42,6.609,3.45,6.644l0.34,0.34v0.5c-0.01,1.17-0.23,3.95-2.05,4.24
		c-1.49,0.236-5.4,1.736-8.88,3.92C140.2,37.59,138.12,39.73,137.5,41.66z M180,44h-45v-1.17c0-7.05,13.22-12.79,16.82-13.521
		c0.13-0.276,0.26-0.92,0.3-1.54c-0.83-0.938-2.83-3.479-3.59-6.776c-0.76-0.36-1.41-1.15-1.81-2.264
		c-0.57-1.55-0.61-3.696,0.49-5.09l-0.01-0.07c-0.21-1.946-0.76-7.13,2.26-10.526C151.25,1.02,153.96,0,157.5,0
		c3.55,0,6.25,1.021,8.041,3.04c3.02,3.396,2.469,8.58,2.26,10.526l-0.01,0.07c1.1,1.394,1.061,3.529,0.488,5.09
		c-0.398,1.109-1.049,1.899-1.818,2.264c-0.75,3.3-2.76,5.826-3.58,6.77c0.039,0.641,0.16,1.28,0.301,1.551
		C166.779,30.04,180,35.781,180,42.83V44z"/>
	<g>
		<path fill="#FFFFFF" d="M97.9,7.99c-3.27,0-5.93,2.68-5.93,5.979v17.063c0,3.3,2.66,5.979,5.93,5.979h16.91
			c3.26,0,5.93-2.68,5.93-5.979V24.61l11.35,11.46c0.06,0.063,0.16,0.174,0.39,0.174c0.05,0,0.15-0.021,0.25-0.063
			c0.16-0.07,0.3-0.28,0.3-0.5V9.32c0-0.22-0.14-0.43-0.34-0.521c-0.33-0.109-0.53,0.061-0.57,0.101l-11.38,11.46v-6.391
			c0-3.3-2.67-5.979-5.93-5.979H97.9z M114.81,39H97.9c-4.36,0-7.9-3.58-7.9-7.97V13.969C90,9.58,93.54,6,97.9,6h16.91
			c4.35,0,7.9,3.58,7.9,7.97v1.601l7.99-8.036c0.43-0.48,1.08-0.75,1.78-0.75c0.38,0,0.72,0.1,0.94,0.18
			C134.4,7.39,135,8.31,135,9.32v26.36c0,1.01-0.6,1.93-1.53,2.34c-0.27,0.104-0.61,0.199-0.99,0.199c-0.7,0-1.35-0.27-1.81-0.77
			l-7.96-8.04v1.616C122.71,35.42,119.16,39,114.81,39z"/>
	</g>
	<path fill="#FFFFFF" d="M2.35,33.65v7.514c0,0.816,0.671,1.486,1.49,1.486h1.489v-2.67h5.33v-5.33h5.33v-5.33h6.021l3.649-3.64
		l0.699,0.25c1.318,0.479,2.722,0.729,4.142,0.729c6.699,0,12.146-5.46,12.146-12.16S37.2,2.35,30.501,2.35
		c-6.701,0-12.16,5.449-12.16,12.149c0,0.75,0.068,1.5,0.209,2.229l0.109,0.609L2.35,33.65z M7.68,45H3.84
		C1.719,45,0,43.281,0,41.16v-8.48l16.139-16.14c-0.101-0.67-0.149-1.354-0.149-2.04C15.99,6.51,22.504,0,30.504,0
		c7.99,0,14.5,6.51,14.5,14.5c0,8-6.51,14.51-14.5,14.51c-1.441,0-2.861-0.21-4.223-0.63l-3.291,3.29h-4.646V37h-5.33v5.33h-5.33
		L7.68,45L7.68,45z"/>
	<g>
		<path fill="#FFFFFF" d="M186.82,6.13c-2.6,0-4.721,2.16-4.721,4.801v25.14c0,2.649,2.121,4.804,4.721,4.804h31.359
			c2.6,0,4.721-2.15,4.721-4.804V17.64c0-2.646-2.121-4.801-4.721-4.801H199.8V10.93c0-2.641-2.119-4.801-4.729-4.801L186.82,6.13
			L186.82,6.13z M218.181,43H186.82c-3.76,0-6.82-3.109-6.82-6.934V10.93c0-3.82,3.061-6.93,6.82-6.93h8.25
			c3.688,0,6.709,2.99,6.83,6.7h16.279c3.76,0,6.817,3.106,6.817,6.938v18.43C225,39.89,221.938,43,218.181,43z"/>
	</g>
	<path fill="#FFFFFF" d="M229.906,42.776h35.188c-0.379-5.841-3.67-11.179-8.776-14.135l-0.942-0.548l0.526-0.952
		c0.774-1.412,1.19-3.019,1.19-4.642c0-3.731-2.196-7.156-5.594-8.709l-1.545-0.715l1.262-1.133
		c1.185-1.059,1.863-2.564,1.863-4.152c0-3.071-2.498-5.567-5.576-5.567c-3.08,0-5.576,2.496-5.576,5.567
		c0,1.588,0.681,3.098,1.861,4.152l1.262,1.133l-1.543,0.715c-3.396,1.553-5.594,4.977-5.594,8.709c0,1.624,0.414,3.229,1.188,4.642
		l0.526,0.952l-0.94,0.548C233.576,31.597,230.285,36.935,229.906,42.776z M267.354,45h-39.707v-1.111
		c0-6.706,3.436-12.979,9.035-16.624c-0.662-1.5-1.008-3.124-1.008-4.766c0-4.094,2.154-7.892,5.576-10.023
		c-1.006-1.342-1.563-2.979-1.563-4.686c0-4.297,3.502-7.791,7.811-7.791c4.307,0,7.811,3.494,7.811,7.791
		c0,1.703-0.559,3.344-1.563,4.686c3.424,2.135,5.573,5.933,5.573,10.023c0,1.642-0.344,3.266-1.006,4.766
		c5.604,3.646,9.035,9.918,9.035,16.624V45H267.354z"/>
	<g>
		<path fill="#BABABA" d="M8.056,47.299c-1,0-2.29,0.66-3.95,2.021c-3.4,2.78-3.18,4.25-2.34,5.563c2.05-2.949,4.91-5.26,8.17-6.62
			C9.346,47.639,8.786,47.299,8.056,47.299z M2.306,56.339l-0.48,0.771l-0.54-0.729c-1.82-2.46-2.11-4.67,2.04-8.069
			c1.92-1.561,3.42-2.29,4.73-2.29c1.6,0,2.61,1.09,3.43,2.104l0.58,0.72l-0.85,0.301C7.566,50.429,4.406,52.99,2.306,56.339z
			 M7.516,66.689h9.57v-12.56h1.25v13.84H7.516V66.689z M17.516,49.999c-8.79,0-15.95,7.34-15.95,16.37
			c0,9.026,7.16,16.37,15.95,16.37c3.81,0,7.3-1.384,10.05-3.674l0.05-0.061v0.011c3.57-3,5.85-7.561,5.85-12.646
			C33.466,57.339,26.306,49.999,17.516,49.999z M34.706,66.369c0,5.446-2.41,10.316-6.2,13.561l3.06,3.14l-0.89,0.899l-3.17-3.26
			c-2.82,2.066-6.27,3.311-9.99,3.311c-3.78,0-7.26-1.271-10.1-3.396l-3.13,3.21l-0.88-0.899l3.02-3.101
			c-3.73-3.24-6.1-8.07-6.1-13.46c0-9.729,7.71-17.65,17.19-17.65S34.706,56.639,34.706,66.369z M30.926,49.319
			c-1.66-1.356-2.96-2.021-3.95-2.021c-0.73,0-1.29,0.341-1.88,0.96c3.26,1.36,6.12,3.671,8.17,6.62
			C34.106,53.569,34.326,52.099,30.926,49.319z M33.746,56.389l-0.54,0.72l-0.48-0.771c-2.1-3.354-5.26-5.909-8.91-7.199
			l-0.85-0.301l0.58-0.72c0.82-1.014,1.83-2.104,3.43-2.104c1.31,0,2.81,0.729,4.72,2.29C35.866,51.709,35.566,53.919,33.746,56.389
			z"/>
	</g>
	<g>
		<path fill="#323333" d="M73.466,46.559c-0.43,0-0.98,0.279-1.7,0.854c-1.46,1.17-1.36,1.79-1,2.34c0.88-1.24,2.1-2.224,3.5-2.79
			C74.016,46.699,73.776,46.559,73.466,46.559z M70.996,50.369l-0.21,0.316l-0.23-0.311c-0.78-1.029-0.9-1.96,0.88-3.394
			c0.82-0.656,1.47-0.97,2.03-0.97c0.68,0,1.12,0.46,1.47,0.894l0.24,0.3l-0.36,0.12C73.256,47.879,71.896,48.959,70.996,50.369z
			 M73.226,54.719h4.11V49.44h0.53v5.819h-4.64V54.719z M77.516,47.699c-3.77,0-6.83,3.09-6.83,6.89c0,3.801,3.06,6.891,6.83,6.891
			c1.63,0,3.13-0.58,4.31-1.55l0.02-0.021c1.53-1.264,2.5-3.184,2.5-5.32C84.346,50.789,81.286,47.699,77.516,47.699z
			 M84.886,54.589c0,2.29-1.04,4.341-2.66,5.71l1.31,1.32l-0.38,0.38l-1.36-1.37c-1.21,0.87-2.68,1.391-4.28,1.391
			c-1.62,0-3.11-0.54-4.33-1.431l-1.34,1.351l-0.38-0.38l1.3-1.301c-1.6-1.369-2.62-3.399-2.62-5.67c0-4.1,3.31-7.43,7.37-7.43
			S84.886,50.49,84.886,54.589z M83.266,47.409c-0.72-0.57-1.27-0.854-1.7-0.854c-0.31,0-0.55,0.144-0.8,0.399
			c1.4,0.566,2.62,1.55,3.5,2.79C84.626,49.199,84.726,48.579,83.266,47.409z M84.476,50.379l-0.24,0.311l-0.2-0.316
			c-0.9-1.41-2.26-2.49-3.82-3.04l-0.36-0.12l0.24-0.3c0.35-0.434,0.79-0.894,1.47-0.894c0.56,0,1.21,0.313,2.03,0.974
			C85.376,48.419,85.256,49.349,84.476,50.379z"/>
	</g>
	<g>
		<path fill="#989898" d="M88.076,47.921c-1.68,1.04-2.21,3.271-1.19,4.971c1.02,1.71,3.2,2.25,4.88,1.21
			c1.67-1.026,2.2-3.261,1.18-4.971C91.936,47.431,89.746,46.891,88.076,47.921z M92.996,54.901l2.02,3.394l-1.18,0.729l-2.03-3.396
			c-2.2,0.938-4.8,0.13-6.08-2.014c-1.4-2.351-0.67-5.43,1.64-6.856c2.31-1.439,5.33-0.689,6.74,1.67
			C95.396,50.581,94.876,53.351,92.996,54.901z"/>
	</g>
	<g>
		<g>
			<path fill="#BABABA" d="M36.928,73.619c4.293,8.221,14.474,11.417,22.693,7.124l-0.555-1.063
				c-7.633,3.985-17.088,1.021-21.075-6.616c-3.986-7.633-1.018-17.088,6.615-21.07c7.633-3.986,17.088-1.021,21.073,6.611
				l1.063-0.556C62.45,49.831,52.27,46.635,44.05,50.927C35.831,55.219,32.636,65.4,36.928,73.619z"/>
		</g>
		<g>
			<polygon fill="#BABABA" points="62.2,60.368 69.647,65.1 70.02,56.284 			"/>
		</g>
	</g>
	<g id="椭圆形">
		<g>
			<circle fill="#00D900" cx="107.74" cy="57.76" r="12.5"/>
		</g>
	</g>
	<g id="椭圆形_1_">
		<g>
			<circle fill="#0080FF" cx="132.74" cy="57.76" r="12.5"/>
		</g>
	</g>
	<g id="椭圆形_2_">
		<g>
			<circle fill="#0080FF" cx="157.739" cy="57.76" r="12.5"/>
		</g>
	</g>
	<g id="合成路径">
		<g>
			<path fill="#FFFFFF" d="M157.563,50.857c-4.042,0-7.332,2.704-7.332,6.028c0,1.79,0.947,3.461,2.606,4.609
				c0.005,0.063,0.008,0.123,0.008,0.185c0,0.857-0.829,1.568-1.54,1.917l-0.203,0.099v0.966l0.37-0.011
				c1.651-0.038,3.544-0.281,5.132-1.788c0.316,0.034,0.637,0.054,0.958,0.054c4.042,0,7.331-2.703,7.331-6.026
				C164.895,53.561,161.605,50.857,157.563,50.857z M157.563,62.188c-0.351,0-0.701-0.021-1.042-0.063l-0.176-0.021l-0.125,0.126
				c-1.205,1.206-2.607,1.563-3.994,1.664c0.723-0.509,1.343-1.272,1.343-2.211c0-0.146-0.011-0.294-0.034-0.445l-0.024-0.157
				l-0.135-0.092c-1.538-1.014-2.421-2.508-2.421-4.1c0-2.924,2.964-5.304,6.608-5.304c3.643,0,6.605,2.38,6.605,5.304
				S161.206,62.188,157.563,62.188z"/>
		</g>
	</g>
	<g id="椭圆形_3_">
		<g>
			<circle fill="#0080FF" cx="182.738" cy="57.76" r="12.5"/>
		</g>
	</g>
	<g id="合成路径_1_">
		<g>
			<path fill="#FFFFFF" d="M182.807,47.807c-2.994,0-5.431,2.438-5.431,5.436c0,2.896,4.938,9.021,5.147,9.28l0.281,0.35l0.28-0.35
				c0.209-0.259,5.147-6.387,5.147-9.28C188.234,50.243,185.8,47.807,182.807,47.807z M182.807,61.71
				c-1.056-1.354-4.707-6.2-4.707-8.475c0-2.596,2.11-4.705,4.707-4.705c2.596,0,4.705,2.109,4.705,4.705
				C187.512,55.511,183.859,60.359,182.807,61.71z"/>
		</g>
	</g>
	<g id="合成路径_2_">
		<g>
			<path fill="#FFFFFF" d="M182.807,50.523c-1.498,0-2.716,1.222-2.716,2.719c0,1.494,1.218,2.716,2.716,2.716
				c1.495,0,2.715-1.222,2.715-2.716C185.521,51.742,184.302,50.523,182.807,50.523z M182.807,55.594
				c-1.298,0-2.354-1.057-2.354-2.354c0-1.3,1.057-2.354,2.354-2.354c1.297,0,2.354,1.056,2.354,2.354
				C185.16,54.538,184.104,55.594,182.807,55.594z"/>
		</g>
	</g>
	<g id="路径">
		<g>
			<path fill="#FFFFFF" d="M185.456,60.893v0.369c1.604,0.308,2.599,0.871,2.599,1.396c0,0.771-2.156,1.63-5.25,1.63
				c-3.093,0-5.248-0.858-5.248-1.63c0-0.522,0.993-1.089,2.598-1.396v-0.369c-1.668,0.302-2.959,0.899-2.959,1.766
				c0,1.294,2.892,1.989,5.609,1.989c2.721,0,5.61-0.695,5.61-1.989C188.417,61.792,187.124,61.195,185.456,60.893z"/>
		</g>
	</g>
	<g id="椭圆形_4_">
		<g>
			<circle fill="#0080FF" cx="207.737" cy="57.76" r="12.5"/>
		</g>
	</g>
	<g id="路径_2_">
		<g>
			<polygon fill="#DDDDDD" points="223.411,45.999 220.146,48.422 227.151,54.499 220.237,60.576 223.503,62.999 233.146,54.499 			
				"/>
		</g>
	</g>
	<g>
		<path fill="#FFFFFF" d="M138.02,61.451h0.587c0.114,0,0.213-0.103,0.213-0.21c0-0.116-0.096-0.216-0.213-0.216h-9.038l0.331-0.644
			c0.06-0.114,0.121-0.229,0.121-0.307c0-0.095-0.032-0.223-0.06-0.344c-0.021-0.075-0.039-0.149-0.053-0.228l-0.071-0.389
			l9.966-1.15c0.11-0.015,0.192-0.104,0.192-0.214v-4.646c0-0.114-0.096-0.214-0.213-0.214h-11.314l-0.06-0.291
			c-0.014-0.068-0.028-0.146-0.043-0.229c-0.089-0.54-0.16-0.639-0.316-0.639h-2.347c-0.117,0-0.213,0.099-0.213,0.211
			s0.1,0.215,0.213,0.215h2.172l1.71,7.88l-0.053,0.109c-0.032,0.068-0.085,0.16-0.142,0.271c-0.11,0.203-0.37,0.676-0.38,0.821
			c0,0.104,0.1,0.205,0.213,0.205L138.02,61.451L138.02,61.451z M129.807,62.191c-0.441,0-0.8,0.356-0.8,0.793
			c0,0.438,0.359,0.789,0.8,0.789s0.8-0.354,0.8-0.789C130.607,62.546,130.248,62.191,129.807,62.191z M138.02,62.191
			c-0.441,0-0.8,0.356-0.8,0.793c0,0.438,0.359,0.789,0.8,0.789s0.8-0.354,0.8-0.789C138.82,62.546,138.461,62.191,138.02,62.191z
			 M138.02,64.513c-0.853,0-1.547-0.687-1.547-1.529c0-0.292,0.082-0.562,0.224-0.793h-5.568c0.142,0.231,0.224,0.501,0.224,0.793
			c0,0.846-0.693,1.529-1.547,1.529c-0.853,0-1.547-0.687-1.547-1.529c0-0.38,0.139-0.725,0.37-0.996
			c-0.224-0.174-0.37-0.44-0.37-0.744c0-0.284,0.203-0.686,0.469-1.173l0.071-0.121l-1.532-7.05h-1.568
			c-0.53,0-0.96-0.427-0.96-0.946c0-0.521,0.43-0.948,0.96-0.948h2.347c0.789,0,0.96,0.708,1.038,1.162h10.695
			c0.53,0,0.96,0.424,0.96,0.949v4.644c0,0.479-0.366,0.889-0.85,0.945l-9.159,1.061c0.021,0.104,0.036,0.21,0.036,0.315
			c0,0.072-0.011,0.146-0.025,0.214h7.865c0.53,0,0.96,0.423,0.96,0.948c0,0.304-0.146,0.569-0.37,0.744
			c0.231,0.271,0.37,0.615,0.37,0.996C139.567,63.826,138.873,64.513,138.02,64.513z"/>
	</g>
	<g>
		<g>
			<polygon fill="#FFFFFF" points="116.33,52.737 114.932,51.339 105.087,61.184 101.173,57.27 99.775,58.668 105.047,63.94 
				105.087,63.9 105.127,63.94 			"/>
		</g>
	</g>
	<g>
		<g>
			<path fill="#FFFFFF" d="M206.396,54.352l-0.285-0.006l-1.045-4.979l-1.041,4.98l-0.289,0.005c0,0-0.438-4.058-0.484-3.985
				c-0.576,0.794-0.939,1.967-0.939,3.273c0,1.949,0.81,3.596,1.922,4.144v7.391c0,0.422,0.345,0.764,0.771,0.764h0.063
				c0.425,0,0.769-0.342,0.769-0.764v-7.391c1.113-0.547,1.922-2.191,1.922-4.144c0-1.295-0.356-2.457-0.924-3.251
				C206.784,50.323,206.396,54.352,206.396,54.352z M212.507,49.356h-0.064c-0.438,0-0.584,0.044-0.983,0.793
				c-0.397,0.749-1.084,3.938-1.194,6.016c-0.103,1.898,0.767,3.177,1.25,3.38v5.615c0,0.43,0.354,0.774,0.795,0.774h0.065
				c0.438,0,0.795-0.348,0.795-0.774V50.522C213.169,50.093,212.944,49.356,212.507,49.356z"/>
		</g>
	</g>
	<path fill="#FFFFFF" d="M234.771,51.071c0.129,3.021,3.221,9.109,6.149,12.039c2.931,2.933,9.021,6.021,12.039,6.15
		c2.108-1.439,4.312-3.4,4.312-4.12c0-1.05-3.23-4.45-4.881-4.45c-0.22,0-0.32,0.07-0.39,0.143c-0.552,0.55-0.899,1.107-1.201,1.607
		c-0.528,0.853-1.08,1.74-2.409,1.74c-1.841,0-3.539-1.71-5.181-3.35c-1.649-1.65-3.358-3.353-3.358-5.19
		c0-1.33,0.891-1.88,1.739-2.41c0.5-0.3,1.06-0.647,1.608-1.198c0.25-0.25,0.119-0.75-0.038-1.119
		c-0.802-1.933-3.531-4.15-4.263-4.15C238.167,46.762,236.21,48.96,234.771,51.071z M253.331,70.51h-0.189
		c-3.262,0-9.881-3.29-13.102-6.52c-3.229-3.223-6.52-9.842-6.52-13.11v-0.181l0.1-0.159c0.791-1.183,3.5-5.03,5.279-5.03
		c1.479,0,4.521,2.76,5.42,4.92c0.541,1.32,0.172,2.08-0.229,2.48c-0.658,0.658-1.318,1.06-1.84,1.39
		c-0.852,0.521-1.148,0.74-1.148,1.34c0,1.32,1.521,2.84,2.988,4.3c1.459,1.473,2.979,2.99,4.301,2.99c0.602,0,0.818-0.3,1.34-1.148
		c0.33-0.521,0.729-1.182,1.392-1.842c0.329-0.33,0.771-0.5,1.271-0.5c2.28,0,6.131,3.881,6.131,5.7
		c0,1.771-3.851,4.479-5.029,5.271L253.331,70.51z"/>
	<polygon fill="#08B4F6" points="264.804,46.156 264.804,61.406 264.949,62.784 258.854,58.275 259.358,57.9 264.088,61.406 
		264.088,46.156 	"/>
	<polygon fill="#08B4F6" points="270.619,62.414 270.619,47.164 275.349,50.669 275.854,50.294 269.758,45.784 269.903,47.164 
		269.903,62.414 	"/>
	
		<polyline fill="none" stroke="#0080FF" stroke-width="2" stroke-linecap="round" stroke-linejoin="round" stroke-miterlimit="10" points="
		277.687,46.651 285.187,55.151 292.687,46.651 	"/>
	
		<circle fill="#FFFFFF" stroke="#999999" stroke-width="2" stroke-linecap="round" stroke-linejoin="round" stroke-miterlimit="10" cx="304.492" cy="55" r="7"/>
	<g>
		<rect x="293.992" y="10.5" fill="#08B4F6" width="21" height="1"/>
		<rect x="303.992" y="0" fill="#08B4F6" width="1" height="21"/>
		
			<circle fill="#FFFFFF" stroke="#08B4F6" stroke-width="2" stroke-linecap="round" stroke-linejoin="round" stroke-miterlimit="10" cx="304.492" cy="11" r="7"/>
		<circle fill="#08B4F6" cx="304.492" cy="11" r="4.5"/>
	</g>
	<g>
		<circle fill="#999999" cx="304.674" cy="37.959" r="0.682"/>
		<circle fill="#999999" cx="304.674" cy="41.766" r="0.682"/>
		<circle fill="#999999" cx="304.674" cy="34.152" r="0.682"/>
		<circle fill="#999999" cx="304.674" cy="30.345" r="0.682"/>
		<circle fill="#999999" cx="304.674" cy="26.537" r="0.682"/>
	</g>
</g>
<path fill="#444444" d="M316.778,11.755v2.503c0,0.272,0.222,0.499,0.499,0.499h0.494v-0.892h1.777v-1.778h1.778v-1.778h2.005
	l1.214-1.214l0.237,0.086c0.438,0.161,0.907,0.242,1.38,0.242c2.23,0,4.05-1.818,4.05-4.055c0-2.231-1.818-4.051-4.05-4.051
	c-2.236,0-4.055,1.818-4.055,4.051c0,0.252,0.024,0.504,0.069,0.744l0.035,0.201L316.778,11.755z M318.556,15.538h-1.278
	c-0.71,0-1.284-0.574-1.284-1.279v-2.831l5.379-5.379c-0.03-0.222-0.045-0.448-0.045-0.68c0-2.665,2.166-4.835,4.835-4.835
	c2.665,0,4.83,2.171,4.83,4.835c0,2.67-2.166,4.835-4.83,4.835c-0.484,0-0.952-0.065-1.41-0.207l-1.093,1.098h-1.551v1.778h-1.773
	v1.777h-1.778L318.556,15.538L318.556,15.538z"/>
<path fill="#444444" d="M327.048,3.343c-0.63,0-1.138,0.514-1.138,1.138c0,0.63,0.509,1.139,1.138,1.139
	c0.625,0,1.133-0.51,1.133-1.139C328.181,3.857,327.673,3.343,327.048,3.343z M327.048,6.013c-0.846,0-1.531-0.685-1.531-1.531
	c0-0.841,0.686-1.525,1.531-1.525c0.841,0,1.526,0.685,1.526,1.525C328.574,5.328,327.889,6.013,327.048,6.013z"/>
<g>
	<g>
		<path fill-rule="evenodd" clip-rule="evenodd" fill="#FFFFFF" d="M317.157,30.667h22.834V16.61h-22.834V30.667z M340.102,31.627
			h-23.061c-0.472,0-0.86-0.38-0.86-0.849V16.499c0-0.469,0.389-0.855,0.86-0.855h23.061c0.473,0,0.861,0.386,0.861,0.855v14.279
			C340.963,31.247,340.574,31.627,340.102,31.627z"/>
	</g>
	<g>
		<g>
			<path fill-rule="evenodd" clip-rule="evenodd" fill="#FFFFFF" d="M324.318,24.35l-6.394,6.345l21.277-0.022l-6.378-6.323
				l-3.622,3.592c-0.333,0.331-0.923,0.331-1.261,0L324.318,24.35z M340.102,31.638h-23.061c-0.173,0-0.339-0.05-0.479-0.144
				l-0.488-0.331l8.244-8.182l4.256,4.22l4.25-4.22l8.25,8.188l-0.495,0.325C340.436,31.589,340.273,31.638,340.102,31.638z"/>
		</g>
		<g>
			<path fill-rule="evenodd" clip-rule="evenodd" fill="#FFFFFF" d="M317.919,16.604l10.655,10.566l10.672-10.588L317.919,16.604z
				 M328.574,28.168c-0.239,0-0.467-0.088-0.633-0.26l-11.867-11.773l0.455-0.332c0.15-0.11,0.328-0.165,0.512-0.165h23.061
				c0.184,0,0.361,0.055,0.512,0.165l0.456,0.332l-11.867,11.773C329.035,28.08,328.813,28.168,328.574,28.168z"/>
		</g>
	</g>
</g>
</svg>
