<?xml version="1.0" encoding="utf-8"?>
<!-- Generator: Adobe Illustrator 17.0.0, SVG Export Plug-In . SVG Version: 6.00 Build 0)  -->
<!DOCTYPE svg PUBLIC "-//W3C//DTD SVG 1.1//EN" "http://www.w3.org/Graphics/SVG/1.1/DTD/svg11.dtd">
<svg version="1.1" xmlns="http://www.w3.org/2000/svg" xmlns:xlink="http://www.w3.org/1999/xlink" x="0px" y="0px"
	 width="90.196px" height="16px" viewBox="33.785 6.576 90.196 16" enable-background="new 33.785 6.576 90.196 16"
	 xml:space="preserve">
<g id="图层_2" display="none">
	<rect x="29.071" y="0.327" display="inline" fill="#3F3F3F" width="100.5" height="28.438"/>
</g>
<g id="图层_1">
	<path fill="#FFFFFF" d="M68.194,15.876c0.177-0.226,0.38-0.6,0.391-1.137c0.031-1.511-1.417-2.019-2.212-2.077h-2.429l-0.034-0.002
		c-0.098-0.213,0.054-0.448,0.053-0.448l-0.001,0.001c0.032-0.04,0.805-0.982,1.324-2.525c0.576-1.711-0.901-2.921-0.964-2.972
		l-0.086-0.051c-0.057-0.023-0.572-0.221-1.059,0.065c-0.372,0.219-0.597,0.643-0.67,1.26c-0.168,1.435-1.372,2.637-1.934,3.078
		c-0.079,0.061-0.143,0.111-0.186,0.149c-0.409,0.353-0.816,1.28-1.123,1.912c-0.206,0.422-0.771,1.1-1.061,1.35
		c-0.198,0.004-0.589,0.012-0.851,0.013c-0.099-0.314-0.391-0.687-0.738-0.687h-3.717c-0.429-0.001-0.777,0.348-0.777,0.776v7.207
		c0,0.429,0.349,0.777,0.777,0.777h3.717c0.378,0,0.693-0.272,0.762-0.63c0.134-0.005,0.255-0.131,0.325-0.121
		c0.097,0.105,0.314,0.514,0.847,0.73l0.063,0.026h0.068c0.042,0.001,2.499,0.007,4.726,0.007c1.124,0,2.1-0.002,2.499-0.007
		c0.72-0.009,1.094-0.325,1.282-0.588c0.363-0.51,0.37-1.091,0.305-1.436c0.471-0.434,0.526-1.215,0.538-1.539
		c0.01-0.29-0.06-0.497-0.155-0.706c0.265-0.24,0.532-0.71,0.569-1.306C68.475,16.472,68.333,16.105,68.194,15.876z M56.69,21.787
		c0,0.042-0.033,0.075-0.075,0.075h-3.717c-0.042,0-0.075-0.033-0.075-0.075v-7.207c0-0.041,0.033-0.075,0.075-0.075h3.717
		c0.041,0,0.075,0.033,0.075,0.075V21.787z M67.527,15.566l-0.347,0.256l0.318,0.294c0.012,0.01,0.28,0.264,0.245,0.835
		c-0.04,0.651-0.482,0.93-0.487,0.931l-0.508,0.212l0.408,0.362c0.034,0.038,0.201,0.24,0.168,0.576
		c-0.028,0.287-0.133,0.871-0.438,1.104l-0.398,0.152l0.279,0.238c0.071,0.212,0.083,0.717-0.152,1.048
		c-0.137,0.193-0.372,0.289-0.719,0.294c-1.115,0.015-6.448,0.002-7.144,0.001c-0.221-0.093-0.443-0.209-0.516-0.267
		c-0.061-0.11-0.229-0.516-0.859-0.496v-5.912c0.37-0.002,0.966-0.015,0.966-0.015l0.121-0.003l0.093-0.076
		c0.041-0.033,0.994-0.956,1.34-1.663c0.33-0.678,0.67-1.446,0.951-1.688c0.037-0.032,0.092-0.075,0.16-0.128
		c0.576-0.452,1.997-1.823,2.199-3.548c0.044-0.379,0.156-0.633,0.324-0.735c0.143-0.086,0.318-0.056,0.397-0.035
		c0.207,0.188,1.069,1.053,0.695,2.162c-0.475,1.412-1.193,2.293-1.215,2.321c-0.178,0.25-0.391,0.808-0.054,1.313
		c0.153,0.229,0.418,0.288,0.614,0.267l2.38-0.001c0.064,0.005,1.562,0.139,1.537,1.362C67.872,15.297,67.537,15.558,67.527,15.566z
		"/>
	<path fill="#898989" d="M49.858,15.876c0.177-0.226,0.38-0.6,0.391-1.137c0.031-1.511-1.417-2.019-2.212-2.077h-2.429l-0.034-0.002
		c-0.098-0.213,0.054-0.448,0.053-0.448l-0.001,0.001c0.032-0.04,0.805-0.982,1.324-2.525c0.576-1.711-0.901-2.921-0.964-2.972
		L45.9,6.665c-0.057-0.023-0.572-0.221-1.059,0.065c-0.372,0.219-0.597,0.643-0.67,1.26c-0.168,1.435-1.372,2.637-1.934,3.078
		c-0.079,0.061-0.143,0.111-0.186,0.149c-0.409,0.353-0.816,1.28-1.123,1.912c-0.206,0.422-0.771,1.1-1.061,1.35
		c-0.198,0.004-0.589,0.012-0.851,0.013c-0.099-0.314-0.391-0.687-0.738-0.687h-3.717c-0.429-0.001-0.777,0.348-0.777,0.776v7.207
		c0,0.429,0.349,0.777,0.777,0.777h3.717c0.378,0,0.693-0.272,0.762-0.63c0.134-0.005,0.255-0.131,0.325-0.121
		c0.097,0.105,0.314,0.514,0.847,0.73l0.063,0.026h0.068c0.042,0.001,2.499,0.007,4.726,0.007c1.124,0,2.1-0.002,2.499-0.007
		c0.72-0.009,1.094-0.325,1.282-0.588c0.363-0.51,0.37-1.091,0.305-1.436c0.471-0.434,0.526-1.215,0.538-1.539
		c0.01-0.29-0.06-0.497-0.155-0.706c0.265-0.24,0.532-0.71,0.569-1.306C50.138,16.472,49.997,16.105,49.858,15.876z M38.354,21.787
		c0,0.042-0.033,0.075-0.075,0.075h-3.717c-0.042,0-0.075-0.033-0.075-0.075v-7.207c0-0.041,0.033-0.075,0.075-0.075h3.717
		c0.041,0,0.075,0.033,0.075,0.075V21.787z M49.19,15.566l-0.347,0.256l0.318,0.294c0.012,0.01,0.28,0.264,0.245,0.835
		c-0.04,0.651-0.482,0.93-0.487,0.931l-0.508,0.212l0.408,0.362c0.034,0.038,0.201,0.24,0.168,0.576
		c-0.028,0.287-0.133,0.871-0.438,1.104l-0.398,0.152l0.279,0.238c0.071,0.212,0.083,0.717-0.152,1.048
		c-0.137,0.193-0.372,0.289-0.719,0.294c-1.115,0.015-6.448,0.002-7.144,0.001c-0.221-0.093-0.443-0.209-0.516-0.267
		c-0.061-0.11-0.229-0.516-0.859-0.496v-5.912c0.37-0.002,0.966-0.015,0.966-0.015l0.121-0.003l0.093-0.076
		c0.041-0.033,0.994-0.956,1.34-1.663c0.33-0.678,0.67-1.446,0.951-1.688c0.037-0.032,0.092-0.075,0.16-0.128
		c0.576-0.452,1.997-1.823,2.199-3.548c0.044-0.379,0.156-0.633,0.324-0.735c0.143-0.086,0.318-0.056,0.397-0.035
		c0.207,0.188,1.069,1.053,0.695,2.162c-0.475,1.412-1.193,2.293-1.215,2.321c-0.178,0.25-0.391,0.808-0.054,1.313
		c0.153,0.229,0.418,0.288,0.614,0.267l2.38-0.001c0.064,0.005,1.562,0.139,1.537,1.362C49.535,15.297,49.201,15.558,49.19,15.566z"
		/>
	<path fill="#F9A208" d="M86.659,15.876c0.177-0.226,0.38-0.6,0.391-1.137c0.031-1.511-1.417-2.019-2.212-2.077H82.41l-0.034-0.002
		c-0.098-0.213,0.054-0.448,0.053-0.448l-0.001,0.001c0.032-0.04,0.805-0.982,1.324-2.525c0.576-1.711-0.901-2.921-0.964-2.972
		l-0.086-0.051c-0.057-0.023-0.572-0.221-1.059,0.065c-0.372,0.219-0.597,0.643-0.67,1.26c-0.168,1.435-1.372,2.637-1.934,3.078
		c-0.079,0.061-0.143,0.111-0.186,0.149c-0.409,0.353-0.816,1.28-1.123,1.912c-0.206,0.422-0.771,1.1-1.061,1.35
		c-0.198,0.004-0.589,0.012-0.851,0.013c-0.099-0.314-0.391-0.687-0.738-0.687h-3.717c-0.429,0-0.777,0.349-0.777,0.777v7.207
		c0,0.429,0.349,0.777,0.777,0.777h3.717c0.378,0,0.693-0.272,0.762-0.63c0.134-0.005,0.255-0.131,0.325-0.121
		c0.097,0.105,0.314,0.514,0.847,0.73l0.063,0.026h0.068c0.042,0.001,2.499,0.007,4.726,0.007c1.124,0,2.1-0.002,2.499-0.007
		c0.72-0.009,1.094-0.325,1.282-0.588c0.363-0.51,0.37-1.091,0.305-1.436c0.471-0.434,0.526-1.215,0.538-1.539
		c0.01-0.29-0.06-0.497-0.155-0.706c0.265-0.24,0.532-0.71,0.569-1.306C86.94,16.472,86.798,16.105,86.659,15.876z M75.155,21.787
		c0,0.042-0.033,0.075-0.075,0.075h-3.717c-0.042,0-0.075-0.033-0.075-0.075v-7.207c0-0.041,0.033-0.075,0.075-0.075h3.717
		c0.041,0,0.075,0.033,0.075,0.075V21.787z M85.991,15.566l-0.347,0.256l0.318,0.294c0.012,0.01,0.28,0.264,0.245,0.835
		c-0.04,0.651-0.482,0.93-0.487,0.931l-0.508,0.212l0.408,0.362c0.034,0.038,0.201,0.24,0.168,0.576
		c-0.028,0.287-0.133,0.871-0.438,1.104l-0.398,0.152l0.279,0.238c0.071,0.212,0.083,0.717-0.152,1.048
		c-0.137,0.193-0.372,0.289-0.719,0.294c-1.115,0.015-6.448,0.002-7.144,0.001c-0.221-0.093-0.443-0.209-0.516-0.267
		c-0.061-0.11-0.229-0.516-0.859-0.496v-5.912c0.37-0.002,0.966-0.015,0.966-0.015l0.121-0.003l0.093-0.076
		c0.041-0.033,0.994-0.956,1.34-1.663c0.33-0.678,0.67-1.446,0.951-1.688c0.037-0.032,0.092-0.075,0.16-0.128
		c0.576-0.452,1.997-1.823,2.199-3.548c0.044-0.379,0.156-0.633,0.324-0.735c0.143-0.086,0.318-0.056,0.397-0.035
		c0.207,0.188,1.069,1.053,0.695,2.162c-0.475,1.412-1.193,2.293-1.215,2.321c-0.178,0.25-0.391,0.808-0.054,1.313
		c0.153,0.229,0.418,0.288,0.614,0.267l2.38-0.001c0.064,0.005,1.562,0.139,1.537,1.362C86.337,15.297,86.002,15.558,85.991,15.566z
		"/>
	<path fill="#FFFFFF" d="M105.373,12.16c-0.037-0.597-0.305-1.066-0.569-1.306c0.095-0.209,0.166-0.415,0.155-0.706
		c-0.012-0.324-0.067-1.106-0.538-1.539c0.066-0.346,0.058-0.926-0.305-1.436c-0.187-0.263-0.561-0.579-1.282-0.588
		c-0.398-0.005-1.375-0.007-2.499-0.007c-2.227,0-4.683,0.007-4.726,0.007h-0.068L95.48,6.609c-0.533,0.216-0.751,0.625-0.847,0.73
		c-0.07,0.009-0.192-0.116-0.325-0.121c-0.069-0.358-0.384-0.63-0.762-0.63h-3.717c-0.428,0-0.777,0.349-0.777,0.777v7.207
		c0,0.428,0.349,0.777,0.777,0.777h3.717c0.347,0,0.638-0.372,0.738-0.687c0.262,0.001,0.653,0.009,0.851,0.013
		c0.29,0.25,0.856,0.929,1.061,1.35c0.308,0.631,0.714,1.558,1.123,1.912c0.043,0.037,0.106,0.087,0.186,0.149
		c0.562,0.441,1.766,1.643,1.934,3.078c0.072,0.617,0.297,1.041,0.67,1.26c0.487,0.286,1.002,0.088,1.059,0.065l0.086-0.05
		c0.063-0.05,1.541-1.261,0.964-2.972c-0.519-1.542-1.291-2.485-1.324-2.525l0.001,0.001c0.002,0-0.151-0.236-0.053-0.448
		l0.034-0.002h2.429c0.795-0.058,2.243-0.566,2.212-2.077c-0.012-0.537-0.215-0.912-0.391-1.137
		C105.263,13.048,105.405,12.681,105.373,12.16z M93.62,14.572c0,0.041-0.033,0.075-0.075,0.075h-3.717
		c-0.042,0-0.075-0.033-0.075-0.075V7.365c0-0.042,0.033-0.075,0.075-0.075h3.717c0.041,0,0.075,0.033,0.075,0.075V14.572z
		 M104.814,14.428c0.025,1.223-1.474,1.357-1.537,1.362l-2.38-0.001c-0.196-0.021-0.46,0.037-0.614,0.267
		c-0.337,0.505-0.125,1.063,0.054,1.313c0.022,0.028,0.739,0.909,1.215,2.321c0.374,1.11-0.487,1.975-0.695,2.162
		c-0.079,0.021-0.254,0.051-0.397-0.035c-0.168-0.102-0.28-0.356-0.324-0.735c-0.202-1.725-1.622-3.096-2.199-3.548
		c-0.068-0.053-0.123-0.096-0.16-0.128c-0.28-0.243-0.621-1.01-0.951-1.688c-0.346-0.708-1.3-1.631-1.34-1.663l-0.093-0.076
		l-0.121-0.003c0,0-0.595-0.013-0.966-0.015V8.048c0.631,0.02,0.798-0.386,0.859-0.496c0.072-0.058,0.295-0.173,0.516-0.267
		c0.695-0.002,6.028-0.015,7.144,0.001c0.346,0.004,0.582,0.1,0.719,0.294c0.235,0.331,0.223,0.836,0.152,1.048l-0.279,0.238
		l0.398,0.152c0.305,0.233,0.41,0.817,0.438,1.104c0.032,0.336-0.134,0.538-0.168,0.576l-0.408,0.362l0.508,0.212
		c0.004,0.002,0.447,0.28,0.487,0.931c0.035,0.571-0.233,0.824-0.245,0.835l-0.318,0.294l0.347,0.256
		C104.467,13.595,104.801,13.855,104.814,14.428z"/>
	<path fill="#F9A208" d="M123.838,12.16c-0.037-0.597-0.305-1.066-0.569-1.306c0.095-0.209,0.166-0.415,0.155-0.706
		c-0.012-0.324-0.067-1.106-0.538-1.539c0.066-0.346,0.058-0.926-0.305-1.436c-0.187-0.263-0.561-0.579-1.282-0.588
		c-0.398-0.005-1.375-0.007-2.499-0.007c-2.227,0-4.683,0.007-4.726,0.007h-0.068l-0.063,0.026c-0.533,0.216-0.751,0.625-0.847,0.73
		c-0.07,0.009-0.192-0.116-0.325-0.121c-0.069-0.358-0.384-0.63-0.762-0.63h-3.717c-0.428,0-0.777,0.349-0.777,0.777v7.207
		c0,0.428,0.349,0.777,0.777,0.777h3.717c0.347,0,0.638-0.372,0.738-0.687c0.262,0.001,0.653,0.009,0.851,0.013
		c0.29,0.25,0.856,0.929,1.061,1.35c0.308,0.631,0.714,1.558,1.123,1.912c0.043,0.037,0.106,0.087,0.186,0.149
		c0.562,0.441,1.766,1.643,1.934,3.078c0.072,0.617,0.297,1.041,0.67,1.26c0.487,0.286,1.002,0.088,1.059,0.065l0.086-0.051
		c0.063-0.05,1.541-1.261,0.964-2.972c-0.519-1.542-1.291-2.485-1.324-2.525l0.001,0.001c0.002,0-0.151-0.236-0.053-0.448
		l0.034-0.002h2.429c0.795-0.058,2.243-0.566,2.212-2.077c-0.012-0.537-0.215-0.912-0.391-1.137
		C123.728,13.048,123.869,12.681,123.838,12.16z M112.085,14.572c0,0.041-0.033,0.075-0.075,0.075h-3.717
		c-0.042,0-0.075-0.033-0.075-0.075V7.365c0-0.042,0.033-0.075,0.075-0.075h3.717c0.041,0,0.075,0.033,0.075,0.075V14.572z
		 M123.278,14.428c0.025,1.223-1.474,1.357-1.537,1.362l-2.38-0.001c-0.196-0.021-0.46,0.037-0.614,0.267
		c-0.337,0.505-0.125,1.063,0.054,1.313c0.022,0.028,0.739,0.909,1.215,2.321c0.374,1.11-0.487,1.975-0.695,2.162
		c-0.079,0.021-0.254,0.051-0.397-0.035c-0.168-0.102-0.28-0.356-0.324-0.735c-0.202-1.725-1.622-3.096-2.199-3.548
		c-0.068-0.053-0.123-0.096-0.16-0.128c-0.28-0.243-0.621-1.01-0.951-1.688c-0.346-0.708-1.299-1.631-1.34-1.663l-0.093-0.076
		l-0.121-0.003c0,0-0.595-0.013-0.966-0.015V8.048c0.631,0.02,0.798-0.386,0.859-0.496c0.072-0.058,0.295-0.173,0.516-0.267
		c0.695-0.002,6.028-0.015,7.144,0.001c0.346,0.004,0.582,0.1,0.719,0.294c0.235,0.331,0.223,0.836,0.152,1.048l-0.279,0.238
		l0.398,0.152c0.305,0.233,0.41,0.817,0.438,1.104c0.032,0.336-0.134,0.538-0.168,0.576l-0.408,0.362l0.508,0.212
		c0.004,0.002,0.447,0.28,0.487,0.931c0.035,0.571-0.233,0.824-0.245,0.835l-0.318,0.294l0.347,0.256
		C122.931,13.595,123.266,13.855,123.278,14.428z"/>
</g>
</svg>
